<svg xmlns="http://www.w3.org/2000/svg" width="1200" height="675" viewBox="0 0 1200 675" role="img" aria-labelledby="title desc">
  <title id="title">Schemat dodawania Google Photorealistic 3D Tiles</title>
  <desc id="desc">Schemat Asset Depot z kartą assetu 2275207 i przyciskiem Add to my assets.</desc>
  <defs><linearGradient id="bg" x1="0" y1="0" x2="1" y2="1"><stop stop-color="#07182a"/><stop offset="1" stop-color="#123b58"/></linearGradient><filter id="s"><feDropShadow dy="16" stdDeviation="16" flood-opacity=".35"/></filter></defs>
  <rect width="1200" height="675" fill="url(#bg)"/>
  <text x="54" y="62" fill="#9fc6df" font-family="system-ui, sans-serif" font-size="22">SCHEMAT INTERFEJSU — ASSET DEPOT</text>
  <g filter="url(#s)">
    <rect x="80" y="94" width="1040" height="520" rx="20" fill="#f7fbff"/>
    <rect x="80" y="94" width="250" height="520" rx="20" fill="#102b43"/>
    <rect x="306" y="94" width="24" height="520" fill="#102b43"/>
  </g>
  <text x="125" y="155" fill="#e8f8ff" font-family="system-ui, sans-serif" font-size="28" font-weight="800">ion dashboard</text>
  <rect x="106" y="193" width="198" height="50" rx="9" fill="#1b516e"/>
  <text x="137" y="226" fill="#fff" font-family="system-ui, sans-serif" font-size="21" font-weight="700">Asset Depot</text>
  <text x="137" y="278" fill="#a9c7d9" font-family="system-ui, sans-serif" font-size="20">My Assets</text>
  <text x="137" y="326" fill="#a9c7d9" font-family="system-ui, sans-serif" font-size="20">Access Tokens</text>
  <text x="378" y="151" fill="#17364c" font-family="system-ui, sans-serif" font-size="34" font-weight="800">Asset Depot</text>
  <rect x="378" y="176" width="670" height="50" rx="10" fill="#fff" stroke="#adc2d2" stroke-width="2"/>
  <circle cx="412" cy="201" r="12" fill="none" stroke="#58768c" stroke-width="4"/><path d="m421 210 14 14" stroke="#58768c" stroke-width="4" stroke-linecap="round"/>
  <text x="452" y="209" fill="#506c80" font-family="system-ui, sans-serif" font-size="20">Google Photorealistic 3D Tiles</text>
  <g transform="translate(378 260)">
    <rect width="670" height="280" rx="16" fill="#e8f1f7" stroke="#9eb8ca" stroke-width="2"/>
    <rect x="20" y="20" width="260" height="240" rx="12" fill="#8dc4d1"/>
    <path d="M20 188 91 114l54 48 45-66 90 92v72H20Z" fill="#315d67"/><path d="M20 220 90 166l45 31 63-48 82 52v59H20Z" fill="#6d9671"/>
    <text x="310" y="58" fill="#15334a" font-family="system-ui, sans-serif" font-size="29" font-weight="800">Google Photorealistic</text>
    <text x="310" y="94" fill="#15334a" font-family="system-ui, sans-serif" font-size="29" font-weight="800">3D Tiles</text>
    <rect x="310" y="119" width="158" height="36" rx="18" fill="#d7e8f2"/>
    <text x="389" y="143" text-anchor="middle" fill="#315a73" font-family="ui-monospace, monospace" font-size="18" font-weight="700">ID 2275207</text>
    <rect x="310" y="184" width="304" height="58" rx="11" fill="#087f95"/>
    <text x="462" y="221" text-anchor="middle" fill="#fff" font-family="system-ui, sans-serif" font-size="22" font-weight="800">Add to my assets</text>
  </g>
  <path d="M1000 466c48 0 74-38 74-84" fill="none" stroke="#f0a93c" stroke-width="7" stroke-linecap="round"/><path d="m1057 392 17-16 14 19" fill="none" stroke="#f0a93c" stroke-width="7" stroke-linecap="round" stroke-linejoin="round"/>
</svg>
